<svg width="428" height="33" viewBox="0 0 428 33" fill="none" xmlns="http://www.w3.org/2000/svg">
<path d="M9.82955 0.90909L15.7955 21.4205H16.0227L21.9886 0.90909H30.9091L21.3068 30H10.5114L0.909091 0.90909H9.82955ZM41.6087 0.90909V30H33.7109V0.90909H41.6087ZM70.522 0.90909V30H63.9311L53.4197 14.7159H53.2493V30H45.3516V0.90909H52.0561L62.397 16.1364H62.6243V0.90909H70.522ZM82.1555 0.90909V30H74.2578V0.90909H82.1555ZM113.058 11.8182H105.046C104.989 11.1553 104.838 10.554 104.592 10.0142C104.355 9.47443 104.023 9.01042 103.597 8.62216C103.181 8.22443 102.674 7.9214 102.077 7.71307C101.481 7.49526 100.804 7.38636 100.046 7.38636C98.7204 7.38636 97.5982 7.70833 96.6797 8.35227C95.7706 8.99621 95.0793 9.91951 94.6058 11.1222C94.1418 12.3248 93.9098 13.7689 93.9098 15.4545C93.9098 17.2348 94.1465 18.7263 94.62 19.929C95.103 21.1222 95.799 22.0218 96.7081 22.6278C97.6172 23.2244 98.7109 23.5227 99.9893 23.5227C100.719 23.5227 101.372 23.4328 101.95 23.2528C102.527 23.0634 103.029 22.7936 103.455 22.4432C103.881 22.0928 104.227 21.6714 104.492 21.179C104.767 20.6771 104.951 20.1136 105.046 19.4886L113.058 19.5455C112.963 20.7765 112.617 22.0312 112.021 23.3097C111.424 24.5786 110.576 25.7528 109.478 26.8324C108.389 27.9025 107.04 28.7642 105.43 29.4176C103.82 30.071 101.95 30.3977 99.8189 30.3977C97.1484 30.3977 94.7526 29.8248 92.6314 28.679C90.5196 27.5331 88.8482 25.8475 87.6172 23.6222C86.3956 21.3968 85.7848 18.6742 85.7848 15.4545C85.7848 12.2159 86.4098 9.48864 87.6598 7.27273C88.9098 5.04735 90.5954 3.36648 92.7166 2.23011C94.8378 1.08428 97.2053 0.511363 99.8189 0.511363C101.656 0.511363 103.346 0.762309 104.89 1.2642C106.433 1.7661 107.788 2.5 108.952 3.46591C110.117 4.42235 111.055 5.60133 111.765 7.00284C112.475 8.40436 112.906 10.0095 113.058 11.8182ZM124.538 0.90909V30H116.641V0.90909H124.538ZM145.497 0.90909H153.395V19.5455C153.395 21.7614 152.865 23.679 151.804 25.2983C150.753 26.9081 149.285 28.1534 147.401 29.0341C145.516 29.9053 143.329 30.3409 140.838 30.3409C138.329 30.3409 136.132 29.9053 134.247 29.0341C132.363 28.1534 130.895 26.9081 129.844 25.2983C128.802 23.679 128.281 21.7614 128.281 19.5455V0.90909H136.179V18.8636C136.179 19.7633 136.378 20.5682 136.776 21.2784C137.173 21.9792 137.723 22.5284 138.423 22.9261C139.134 23.3239 139.938 23.5227 140.838 23.5227C141.747 23.5227 142.552 23.3239 143.253 22.9261C143.954 22.5284 144.503 21.9792 144.901 21.2784C145.298 20.5682 145.497 19.7633 145.497 18.8636V0.90909ZM172.83 10C172.754 9.05303 172.399 8.31439 171.765 7.78409C171.14 7.25379 170.188 6.98864 168.91 6.98864C168.095 6.98864 167.428 7.08807 166.907 7.28693C166.396 7.47633 166.017 7.73674 165.771 8.06818C165.524 8.39962 165.397 8.77841 165.387 9.20455C165.368 9.55492 165.43 9.87216 165.572 10.1562C165.723 10.4309 165.96 10.6818 166.282 10.9091C166.604 11.1269 167.016 11.3258 167.518 11.5057C168.02 11.6856 168.616 11.8466 169.308 11.9886L171.694 12.5C173.304 12.8409 174.682 13.2907 175.827 13.8494C176.973 14.4081 177.911 15.0663 178.64 15.8239C179.369 16.572 179.904 17.4148 180.245 18.3523C180.595 19.2898 180.775 20.3125 180.785 21.4205C180.775 23.3333 180.297 24.9527 179.35 26.2784C178.403 27.6042 177.049 28.6127 175.288 29.304C173.536 29.9953 171.429 30.3409 168.967 30.3409C166.438 30.3409 164.232 29.9669 162.347 29.2188C160.472 28.4706 159.014 27.3201 157.972 25.767C156.94 24.2045 156.419 22.2064 156.41 19.7727H163.91C163.957 20.6629 164.18 21.411 164.577 22.017C164.975 22.6231 165.534 23.0824 166.254 23.3949C166.983 23.7074 167.849 23.8636 168.853 23.8636C169.696 23.8636 170.401 23.7595 170.969 23.5511C171.538 23.3428 171.969 23.054 172.262 22.6847C172.556 22.3153 172.707 21.8939 172.717 21.4205C172.707 20.9754 172.56 20.5871 172.276 20.2557C172.002 19.9148 171.547 19.6117 170.913 19.3466C170.278 19.072 169.421 18.8163 168.342 18.5795L165.444 17.9545C162.868 17.3958 160.837 16.4631 159.35 15.1562C157.873 13.84 157.139 12.0455 157.148 9.77273C157.139 7.92614 157.631 6.31155 158.626 4.92898C159.629 3.53693 161.017 2.45265 162.788 1.67614C164.568 0.89962 166.609 0.511363 168.91 0.511363C171.258 0.511363 173.29 0.904355 175.004 1.69034C176.718 2.47633 178.039 3.58428 178.967 5.0142C179.904 6.43466 180.378 8.09659 180.387 10H172.83ZM218.917 11.8182H210.906C210.849 11.1553 210.697 10.554 210.451 10.0142C210.214 9.47443 209.883 9.01042 209.457 8.62216C209.04 8.22443 208.533 7.9214 207.937 7.71307C207.34 7.49526 206.663 7.38636 205.906 7.38636C204.58 7.38636 203.458 7.70833 202.539 8.35227C201.63 8.99621 200.939 9.91951 200.465 11.1222C200.001 12.3248 199.769 13.7689 199.769 15.4545C199.769 17.2348 200.006 18.7263 200.479 19.929C200.962 21.1222 201.658 22.0218 202.567 22.6278C203.477 23.2244 204.57 23.5227 205.849 23.5227C206.578 23.5227 207.231 23.4328 207.809 23.2528C208.387 23.0634 208.888 22.7936 209.315 22.4432C209.741 22.0928 210.086 21.6714 210.352 21.179C210.626 20.6771 210.811 20.1136 210.906 19.4886L218.917 19.5455C218.822 20.7765 218.477 22.0312 217.88 23.3097C217.283 24.5786 216.436 25.7528 215.337 26.8324C214.248 27.9025 212.899 28.7642 211.289 29.4176C209.679 30.071 207.809 30.3977 205.678 30.3977C203.008 30.3977 200.612 29.8248 198.491 28.679C196.379 27.5331 194.708 25.8475 193.477 23.6222C192.255 21.3968 191.644 18.6742 191.644 15.4545C191.644 12.2159 192.269 9.48864 193.519 7.27273C194.769 5.04735 196.455 3.36648 198.576 2.23011C200.697 1.08428 203.065 0.511363 205.678 0.511363C207.515 0.511363 209.206 0.762309 210.749 1.2642C212.293 1.7661 213.647 2.5 214.812 3.46591C215.977 4.42235 216.914 5.60133 217.624 7.00284C218.335 8.40436 218.765 10.0095 218.917 11.8182ZM222.5 30V0.90909H243.466V7.27273H230.398V12.2727H242.386V18.6364H230.398V23.6364H243.409V30H222.5ZM247.383 30V0.90909H259.94C262.099 0.90909 263.988 1.30208 265.607 2.08807C267.227 2.87405 268.486 4.00568 269.386 5.48295C270.285 6.96023 270.735 8.73106 270.735 10.7955C270.735 12.8788 270.271 14.6354 269.343 16.0653C268.424 17.4953 267.132 18.5748 265.465 19.304C263.808 20.0331 261.871 20.3977 259.656 20.3977H252.156V14.2614H258.065C258.993 14.2614 259.783 14.1477 260.437 13.9205C261.1 13.6837 261.606 13.3097 261.957 12.7983C262.317 12.2869 262.496 11.6193 262.496 10.7955C262.496 9.96212 262.317 9.28504 261.957 8.7642C261.606 8.2339 261.1 7.84564 260.437 7.59943C259.783 7.34375 258.993 7.21591 258.065 7.21591H255.281V30H247.383ZM264.428 16.6477L271.701 30H263.121L256.019 16.6477H264.428ZM285.352 19.2045H291.488L293.704 21.9886L297.454 26.25L302.34 32.1591H295.352L291.886 28.125L289.556 24.7727L285.352 19.2045ZM302.283 15.4545C302.283 18.6932 301.654 21.4252 300.394 23.6506C299.135 25.8665 297.435 27.5473 295.295 28.6932C293.155 29.8295 290.768 30.3977 288.136 30.3977C285.484 30.3977 283.088 29.8248 280.948 28.679C278.817 27.5237 277.122 25.8381 275.863 23.6222C274.613 21.3968 273.988 18.6742 273.988 15.4545C273.988 12.2159 274.613 9.48864 275.863 7.27273C277.122 5.04735 278.817 3.36648 280.948 2.23011C283.088 1.08428 285.484 0.511363 288.136 0.511363C290.768 0.511363 293.155 1.08428 295.295 2.23011C297.435 3.36648 299.135 5.04735 300.394 7.27273C301.654 9.48864 302.283 12.2159 302.283 15.4545ZM294.158 15.4545C294.158 13.7121 293.926 12.2443 293.462 11.0511C293.008 9.84848 292.331 8.93939 291.431 8.32386C290.541 7.69886 289.442 7.38636 288.136 7.38636C286.829 7.38636 285.726 7.69886 284.826 8.32386C283.936 8.93939 283.259 9.84848 282.795 11.0511C282.34 12.2443 282.113 13.7121 282.113 15.4545C282.113 17.197 282.34 18.6695 282.795 19.8722C283.259 21.0653 283.936 21.9744 284.826 22.5994C285.726 23.215 286.829 23.5227 288.136 23.5227C289.442 23.5227 290.541 23.215 291.431 22.5994C292.331 21.9744 293.008 21.0653 293.462 19.8722C293.926 18.6695 294.158 17.197 294.158 15.4545ZM323.192 0.90909H331.09V19.5455C331.09 21.7614 330.56 23.679 329.499 25.2983C328.448 26.9081 326.98 28.1534 325.096 29.0341C323.211 29.9053 321.024 30.3409 318.533 30.3409C316.024 30.3409 313.827 29.9053 311.942 29.0341C310.058 28.1534 308.59 26.9081 307.539 25.2983C306.497 23.679 305.977 21.7614 305.977 19.5455V0.90909H313.874V18.8636C313.874 19.7633 314.073 20.5682 314.471 21.2784C314.869 21.9792 315.418 22.5284 316.119 22.9261C316.829 23.3239 317.634 23.5227 318.533 23.5227C319.442 23.5227 320.247 23.3239 320.948 22.9261C321.649 22.5284 322.198 21.9792 322.596 21.2784C322.994 20.5682 323.192 19.7633 323.192 18.8636V0.90909ZM334.844 30V0.90909H355.81V7.27273H342.741V12.2727H354.73V18.6364H342.741V23.6364H355.753V30H334.844ZM367.624 0.90909V30H359.727V0.90909H367.624ZM371.367 30V0.90909H383.924C386.083 0.90909 387.972 1.30208 389.592 2.08807C391.211 2.87405 392.47 4.00568 393.37 5.48295C394.27 6.96023 394.719 8.73106 394.719 10.7955C394.719 12.8788 394.255 14.6354 393.327 16.0653C392.409 17.4953 391.116 18.5748 389.45 19.304C387.792 20.0331 385.856 20.3977 383.64 20.3977H376.14V14.2614H382.049C382.977 14.2614 383.768 14.1477 384.421 13.9205C385.084 13.6837 385.591 13.3097 385.941 12.7983C386.301 12.2869 386.481 11.6193 386.481 10.7955C386.481 9.96212 386.301 9.28504 385.941 8.7642C385.591 8.2339 385.084 7.84564 384.421 7.59943C383.768 7.34375 382.977 7.21591 382.049 7.21591H379.265V30H371.367ZM388.413 16.6477L395.685 30H387.106L380.004 16.6477H388.413ZM405.643 30H397.12L406.722 0.90909H417.518L427.12 30H418.597L412.234 8.92045H412.006L405.643 30ZM404.052 18.5227H420.075V24.4318H404.052V18.5227Z" fill="black"/>
</svg>
